<?xml version="1.0" standalone="no"?>
<!DOCTYPE svg PUBLIC "-//W3C//DTD SVG 20010904//EN"
 "http://www.w3.org/TR/2001/REC-SVG-20010904/DTD/svg10.dtd">
<svg version="1.0" xmlns="http://www.w3.org/2000/svg"
 width="1920.000000pt" height="1080.000000pt" viewBox="0 0 1920.000000 1080.000000"
 preserveAspectRatio="xMidYMid meet">
<metadata>
Created by potrace 1.16, written by Peter Selinger 2001-2019
</metadata>
<g transform="translate(0.000000,1080.000000) scale(0.100000,-0.100000)"
fill="#000000" stroke="none">
<path d="M7368 5998 c-9 -7 -24 -42 -33 -78 -9 -36 -52 -184 -96 -330 -128
-430 -153 -595 -108 -701 22 -51 57 -79 99 -79 74 0 187 115 260 263 l50 102
0 -97 c0 -121 14 -190 48 -229 24 -29 29 -31 82 -27 46 3 66 11 108 42 135 99
283 426 361 796 37 179 51 257 51 287 0 26 -40 56 -63 47 -21 -8 -21 -8 -57
-204 -53 -285 -100 -441 -184 -608 -74 -148 -164 -252 -218 -252 -72 0 -46
238 86 777 30 120 51 223 49 230 -6 16 -47 27 -67 20 -9 -4 -33 -63 -56 -139
-117 -377 -227 -636 -348 -813 -69 -103 -123 -118 -138 -40 -10 53 2 102 141
595 34 124 74 267 86 318 l24 94 -24 19 c-27 22 -32 23 -53 7z"/>
<path d="M7980 3566 c0 -12 17 -16 78 -18 l77 -3 5 -155 c3 -93 9 -155 15
-155 6 0 12 62 15 155 l5 155 68 5 c37 3 67 10 67 15 0 6 -64 11 -165 13 -140
2 -165 0 -165 -12z"/>
</g>
</svg>
